<svg width="158" height="39" viewBox="0 0 158 39" fill="none" xmlns="http://www.w3.org/2000/svg">
<path d="M22.8802 14.7227C22.8802 18.1614 19.9402 20.0477 15.2827 20.0477H0.833984V0.637695H14.1727C18.8302 0.637695 21.7702 2.46769 21.7702 5.60269C21.7702 7.82269 20.3302 9.7052 17.4427 9.9002C20.4952 10.0652 22.8765 11.6477 22.8765 14.7264L22.8802 14.7227ZM5.21773 8.5127H13.4527C15.864 8.5127 17.364 8.1227 17.364 6.3227C17.364 4.5227 15.8677 4.1327 13.4527 4.1327H5.21398V8.5127H5.21773ZM18.3352 14.2239C18.3352 12.2552 16.8652 11.8952 14.3715 11.8952H5.21398V16.5527H14.364C16.8615 16.5527 18.3277 16.1627 18.3277 14.2239H18.3352Z" fill="white"/>
<path d="M55.0477 16.3314V20.0477H35.0527V0.637695H54.7702V4.35395H39.4627V8.34769H52.2465V12.0639H39.4627V16.3352H55.0477V16.3314Z" fill="white"/>
<path d="M83.1899 15.9452H71.4599L69.3787 20.0477H64.6387L74.9249 0.637695H79.7774L90.0637 20.0477H85.2674L83.1862 15.9452H83.1899ZM81.3299 12.3414L77.3099 4.43645L73.2899 12.3414H81.3337H81.3299Z" fill="white"/>
<path d="M118.022 20.0477L112.45 13.4477H105.433V20.0477H101.023V0.637695H114.418C119.162 0.637695 122.736 2.8277 122.736 7.0427C122.736 10.3427 120.546 12.3939 117.328 13.1439L123.317 20.0477H118.022ZM114.167 9.78769C116.496 9.78769 118.217 9.23269 118.217 7.06894C118.217 4.90519 116.496 4.35019 114.167 4.35019H105.403V9.78395H114.167V9.78769Z" fill="white"/>
<path d="M157.509 10.3427C157.509 16.3877 152.822 20.0477 145.502 20.0477H135.186V0.637695H145.502C152.822 0.637695 157.509 4.2977 157.509 10.3427ZM152.991 10.3427C152.991 6.34895 149.829 4.40644 145.172 4.40644H139.626V16.2752H145.172C149.829 16.2752 152.991 14.3327 152.991 10.3389V10.3427Z" fill="white"/>
<path d="M31.4226 36.2744H26.1876L25.2576 38.1044H23.1426L27.7326 29.4419H29.9001L34.4901 38.1044H32.3488L31.4226 36.2744ZM30.5938 34.6656L28.7976 31.1369L27.0013 34.6656H30.5901H30.5938Z" fill="white"/>
<path d="M49.7157 33.7732C49.7157 36.4732 47.6232 38.1044 44.357 38.1044H39.752V29.4419H44.357C47.6232 29.4419 49.7157 31.0769 49.7157 33.7732ZM47.6982 33.7732C47.6982 31.9919 46.2882 31.1256 44.207 31.1256H41.732V36.4244H44.207C46.2845 36.4244 47.6982 35.5581 47.6982 33.7769V33.7732Z" fill="white"/>
<path d="M56.146 29.4419L59.4123 36.1394L62.6673 29.4419H64.8085L60.4398 38.1044H58.3473L53.9785 29.4419H56.146Z" fill="white"/>
<path d="M70.0703 38.1044V29.4419H72.0503V38.1044H70.0703Z" fill="white"/>
<path d="M87.6541 35.4831C87.6541 37.1894 86.0341 38.3781 82.9628 38.3781C80.7728 38.3781 78.9916 37.7594 77.6641 36.6344L78.8041 35.2844C79.8691 36.2631 81.2416 36.7206 83.0116 36.7206C84.7816 36.7206 85.6591 36.3869 85.6591 35.6669C85.6591 34.9469 84.7666 34.7519 82.7753 34.5794C80.3003 34.3694 77.9978 33.8256 77.9978 31.9694C77.9978 30.1131 79.9291 29.1719 82.6028 29.1719C84.4966 29.1719 86.1316 29.6406 87.2303 30.4956L86.1428 31.8681C85.1903 31.1369 84.0128 30.8406 82.6028 30.8294C81.4253 30.8181 79.9928 31.0281 79.9928 31.8194C79.9928 32.5619 81.2303 32.6369 82.9516 32.7719C85.7116 32.9931 87.6541 33.5781 87.6541 35.4831Z" fill="white"/>
<path d="M92.791 33.773C92.791 30.878 94.921 29.168 98.2998 29.168C101.679 29.168 103.809 30.8742 103.809 33.773C103.809 36.6717 101.679 38.378 98.2998 38.378C94.921 38.378 92.791 36.6717 92.791 33.773ZM101.787 33.773C101.787 31.9167 100.437 30.878 98.296 30.878C96.1548 30.878 94.8048 31.9167 94.8048 33.773C94.8048 35.6292 96.1398 36.668 98.296 36.668C100.452 36.668 101.787 35.6292 101.787 33.773Z" fill="white"/>
<path d="M117.256 38.1044L114.77 35.1606H111.639V38.1044H109.67V29.4419H115.647C117.762 29.4419 119.36 30.4206 119.36 32.2994C119.36 33.7731 118.381 34.6881 116.945 35.0219L119.619 38.1044H117.256ZM115.535 33.5257C116.574 33.5257 117.342 33.2781 117.342 32.3144C117.342 31.3506 116.574 31.1031 115.535 31.1031H111.624V33.5294H115.535V33.5257Z" fill="white"/>
<path d="M125.967 29.4419L128.888 33.5032L131.798 29.4419H134.037L129.867 35.1494V38.1082H127.887V35.1494L123.717 29.4419H125.971H125.967Z" fill="white"/>
</svg>
