<svg width="74" height="65" viewBox="0 0 74 65" fill="none" xmlns="http://www.w3.org/2000/svg">
<path d="M49.7802 25.0558L54.4039 20.3589V7.87424L54.3252 7.79549C51.4142 6.13611 49.0208 3.61611 47.3333 0.719238C45.2211 0.719238 0.488281 0.719238 0.488281 0.719238C1.51766 2.4208 1.62735 4.52174 0.777971 6.31893L0.488281 6.93486H3.45547C4.72953 6.93486 5.76172 7.96705 5.76172 9.24111V23.1546C5.48047 24.3583 4.39766 25.2274 4.39766 25.2274C5.30047 26.2624 5.63797 27.2664 5.76172 27.7811V43.3427C5.76172 44.6167 4.72953 45.6489 3.45547 45.6489H0.488281L0.600782 45.8486C1.56266 47.5671 1.60766 49.6511 0.718906 51.4089L0.488281 51.8617C0.488281 51.8617 47.3108 51.8617 47.3755 51.8617C47.4739 51.693 47.4964 51.6086 47.6005 51.4427C49.1699 48.9311 51.3074 46.8105 53.8358 45.2664L54.7639 44.7461V29.9692L49.7773 25.0558H49.7802ZM12.0505 6.93486H44.4758C45.5558 8.35236 46.8298 9.61236 48.2614 10.6783V18.9161L44.6474 22.5302H12.0505V6.93486ZM48.478 41.9505C48.2108 42.1417 47.9492 42.3414 47.6933 42.5467C46.557 43.4608 45.5305 44.5014 44.6305 45.6489H12.0505V28.0174H44.8639L48.478 31.6314V41.9505Z" fill="white"/>
<path d="M41.7562 55.9146H41.8012L42.7941 59.073C44.2875 59.0589 45.3759 59.0505 46.065 59.0505H46.11V59.073L43.4494 61.0136V61.0361L44.4647 64.1496H44.4197C42.6759 62.8699 41.8041 62.2258 41.8041 62.2089C41.6775 62.2905 40.7887 62.9374 39.1434 64.1496H39.0984L40.1362 61.0136C38.505 59.8324 37.6106 59.1939 37.4531 59.0955V59.0505H37.4981C38.1872 59.0505 39.2756 59.0589 40.7691 59.073C41.43 56.9945 41.7619 55.9399 41.7619 55.9146H41.7562Z" fill="white"/>
<path d="M73.7252 58.2634L73.8349 58.0665L68.9018 58.0524C67.6334 58.0496 66.6068 57.0202 66.6012 55.7518L66.559 39.9765C66.5984 38.9387 67.2621 38.0387 67.9905 37.2034C67.9905 37.2034 66.559 35.5721 66.559 34.0899V25.3852V19.2259L66.438 19.1049C62.8859 17.2093 59.9524 14.304 58.023 10.7715H26.0477C24.1184 14.304 21.1849 17.2065 17.6327 19.1049L17.5118 19.2259V25.3852V34.0899C17.5118 35.5721 16.0802 37.2034 16.0802 37.2034C16.8087 38.0387 17.4724 38.9387 17.5118 39.9765L17.4696 55.7209C17.4668 56.9921 16.4346 58.0187 15.1662 58.0215H10.1543L10.3849 58.4799C11.2737 60.2377 11.2287 62.3218 10.2668 64.0374L10.1543 64.2371L17.4471 64.2568V64.2652C17.4471 64.2652 17.4612 64.2596 17.4696 64.2568L30.9809 64.2934C30.6293 63.2809 30.4352 62.1952 30.4352 61.0618C30.4352 59.9959 30.6068 58.9693 30.9218 58.0074L23.733 58.013L23.7274 40.2127H47.1696V34.0084H23.7274V22.6459C25.9746 21.1721 27.9152 19.2709 29.4368 17.0574H54.634C56.1555 19.2709 58.0962 21.1693 60.3434 22.6459V33.9155L60.2505 34.0084H56.1752V40.2127H60.3434L60.3377 58.0299L53.0027 58.0102C53.3543 59.0227 53.5484 60.1084 53.5484 61.2418C53.5484 62.3077 53.3768 63.3343 53.0618 64.2962L73.8293 64.2821L73.5987 63.8293C72.7099 62.0715 72.7549 59.9846 73.7168 58.2662L73.7252 58.2634Z" fill="white"/>
</svg>
