<svg xmlns="http://www.w3.org/2000/svg" fill="none" viewBox="0 0 60 61"><path fill="#f4f4f5" d="M57.84 49.914v-.038l-2.964-5.408a.302.302 0 0 0-.27-.16.315.315 0 0 0-.153.041.294.294 0 0 0-.114.119c-1.52 2.408-3.742 4.24-6.338 5.225a.28.28 0 0 0-.113.077.317.317 0 0 0-.074.119.303.303 0 0 0 0 .275l2.501 4.374c.12.212.297.385.509.497.211.112.447.16.683.134.236-.022.46-.115.647-.269.187-.15.331-.355.41-.59l1.04-2.99 2.988.522a1.224 1.224 0 0 0 1.196-.567 1.357 1.357 0 0 0 .052-1.367v.006ZM39.312 49.639c-2.6-.983-4.827-2.815-6.35-5.226a.322.322 0 0 0-.261-.118.28.28 0 0 0-.15.041.324.324 0 0 0-.11.116l-3.026 5.42a1.324 1.324 0 0 0-.156.692c.012.24.083.478.211.676.13.199.31.359.521.458.212.1.445.138.675.106l2.988-.522 1.036 2.99c.083.234.227.436.414.586.19.15.413.244.65.263a1.21 1.21 0 0 0 .717-.115c.224-.112.407-.288.533-.51l2.501-4.39a.304.304 0 0 0 0-.275.358.358 0 0 0-.187-.195l-.006.003ZM51.373 43.85a11.522 11.522 0 0 0 2.378-3.708c.552-1.387.837-2.876.84-4.378 0-2.257-.64-4.467-1.842-6.346a11.079 11.079 0 0 0-4.904-4.21 10.49 10.49 0 0 0-6.317-.654 10.8 10.8 0 0 0-5.603 3.122 11.606 11.606 0 0 0-3 5.844 11.885 11.885 0 0 0 .613 6.6 11.363 11.363 0 0 0 4.018 5.135 10.625 10.625 0 0 0 6.068 1.94c1.438 0 2.863-.29 4.193-.867a10.93 10.93 0 0 0 3.556-2.475v-.003Zm-5.064-3.526-2.188-1.38a.645.645 0 0 0-.693 0l-2.188 1.38c-.506.32-1.134-.154-1-.759l.583-2.6a.718.718 0 0 0-.215-.688l-1.933-1.752c-.448-.407-.209-1.175.383-1.226l2.547-.224a.677.677 0 0 0 .56-.423l.997-2.456a.658.658 0 0 1 1.232 0l.996 2.456c.098.24.312.403.56.423l2.548.224c.591.051.83.82.383 1.226l-1.934 1.752a.725.725 0 0 0-.215.688l.583 2.6c.134.602-.49 1.08-1 .76h-.006ZM28.704 46.808H4.924c.119-2.737.94-5.376 2.393-7.672 1.566-2.475 3.767-4.4 6.372-5.575a2.582 2.582 0 0 0 1.122-.912c.297-.43.466-.932.484-1.46.024-.49-.08-.977-.291-1.396a2.692 2.692 0 0 0-.972-1.08A10.065 10.065 0 0 1 11.9 26.92a11.14 11.14 0 0 1-2.81-5.63 11.436 11.436 0 0 1 .637-6.31 10.857 10.857 0 0 1 3.874-4.89 10.152 10.152 0 0 1 5.814-1.835c2.075 0 4.086.634 5.814 1.835a10.856 10.856 0 0 1 3.875 4.89 11.376 11.376 0 0 1 .637 6.31 11.097 11.097 0 0 1-2.798 5.614 10.895 10.895 0 0 1-2.213 1.755l-.113.074a2.74 2.74 0 0 0-.883 1.024 2.88 2.88 0 0 0-.304 1.332l.007.154c.04.474.196.932.45 1.323.258.4.616.723 1.03.934l.098.048a14.545 14.545 0 0 1 5.572 4.371c-.236-1.684-.2-3.407.126-5.094.024-.131.055-.263.082-.394a18.635 18.635 0 0 0-2.219-1.585c.393-.33.77-.682 1.128-1.053l.022-.023a15.24 15.24 0 0 0 3.855-7.72 15.64 15.64 0 0 0-.876-8.659c-1.104-2.74-2.942-5.059-5.315-6.705a13.927 13.927 0 0 0-7.969-2.51c-2.847 0-5.605.87-7.978 2.517-2.372 1.646-4.21 3.964-5.314 6.708a15.673 15.673 0 0 0-.877 8.658c.53 2.924 1.864 5.591 3.834 7.698.35.384.718.746 1.1 1.086-2.454 1.485-4.548 3.545-6.13 6.045A19.817 19.817 0 0 0 1 47.474c0 .9.35 1.78.956 2.415A3.172 3.172 0 0 0 4.27 50.89h22.181l2.253-4.083Z"/><path fill="#f4f4f5" d="M37.936 48.896c-.12-.067-.242-.138-.359-.208-.03.087-.064.17-.1.25l.462-.042h-.003Z"/></svg>
