<svg xmlns="http://www.w3.org/2000/svg" fill="#f4f4f5" viewBox="0 0 60 61"><path fill="#f4f4f5" d="M14.141 23.467a2.156 2.156 0 0 0 1.496-.584l9.548-8.933a.73.73 0 0 1 .504-.204c.188 0 .361.074.503.204l3.192 3.207a5.2 5.2 0 0 0 3.588 1.435 5.169 5.169 0 0 0 3.576-1.435l5.33-5.306a.227.227 0 0 1 .115-.077.267.267 0 0 1 .127-.027.354.354 0 0 1 .253.104l2.546 2.53c.138.134.292.242.469.315.177.073.361.108.55.104.2 0 .384-.035.561-.104.258-.115.481-.303.63-.538.166-.235.247-.511.259-.796V4.675c0-.396-.166-.776-.443-1.06a1.508 1.508 0 0 0-1.065-.44h-8.613a1.507 1.507 0 0 0-1.277.927 1.483 1.483 0 0 0 .258 1.55l2.545 2.53a.26.26 0 0 1 .07.116.296.296 0 0 1 .034.138.55.55 0 0 1-.023.139.415.415 0 0 1-.08.115l-5.353 5.364a.772.772 0 0 1-.516.2.73.73 0 0 1-.503-.2l-3.215-3.207A5.03 5.03 0 0 0 25.7 9.382a5.022 5.022 0 0 0-3.518 1.408l-9.537 8.994a2.2 2.2 0 0 0-.653 1.48 2.192 2.192 0 0 0 .561 1.515c.2.22.442.392.711.512.27.119.562.176.866.176h.011ZM49.207 24.86v29.835h-6.864V24.86h6.864Zm-16.081 9.19v20.645h-6.864V34.05h6.864Zm-16.081 6.89v13.755H10.18V40.94h6.864ZM50.368 21.4h-9.19a2.297 2.297 0 0 0-2.296 2.295v29.867h-2.295V32.885a2.296 2.296 0 0 0-2.3-2.296h-9.19a2.297 2.297 0 0 0-2.296 2.296V53.56h-2.296V39.775a2.297 2.297 0 0 0-2.295-2.295H9.016a2.297 2.297 0 0 0-2.296 2.295v13.786h-2.3a2.297 2.297 0 0 0-1.627 3.918 2.3 2.3 0 0 0 1.628.673h50.542a2.297 2.297 0 0 0 0-4.591h-2.296V23.698a2.297 2.297 0 0 0-2.295-2.296l-.004-.003Z"/></svg>
