<svg xmlns="http://www.w3.org/2000/svg" fill="#f4f4f5" viewBox="0 0 60 61"><g clip-path="url(#a)"><g fill="#f4f4f5" clip-path="url(#b)"><path d="M47.507 32.84v23.254H34.663v-6.858a6.083 6.083 0 0 0-1.79-4.322 6.076 6.076 0 0 0-4.323-1.79 6.091 6.091 0 0 0-4.326 1.79 6.072 6.072 0 0 0-1.787 4.322v6.858H9.59V32.847l18.956-14.65 6.487 5.01v-4.524l-4.338-3.351a3.532 3.532 0 0 0-2.149-.733c-.772 0-1.536.259-2.149.732L7.377 30.03a3.549 3.549 0 0 0-.999 1.218 3.544 3.544 0 0 0-.37 1.56V56.15c0 .939.366 1.822 1.027 2.487a3.542 3.542 0 0 0 2.491 1.035H23.36a2.65 2.65 0 0 0 1.883-.784 2.643 2.643 0 0 0 .772-1.875v-7.78a2.534 2.534 0 0 1 2.531-2.535 2.534 2.534 0 0 1 2.531 2.53v7.781c0 .705.275 1.373.78 1.883a2.643 2.643 0 0 0 1.875.772h13.834c.928 0 1.839-.378 2.492-1.03a3.495 3.495 0 0 0 1.03-2.488v-23.35c0-.538-.127-1.071-.366-1.549a3.54 3.54 0 0 0-1.007-1.226l-.314-.242h-5.85l3.952 3.052.004.008ZM19.106 10.317c.195.175.421.306.664.394a1.945 1.945 0 0 0 2.117-.589c.168-.2.291-.43.367-.681a7.962 7.962 0 0 1 2.252-3.383 8 8 0 0 1 3.63-1.827 7.941 7.941 0 0 1 7.482 2.4.507.507 0 0 1 .132.338.507.507 0 0 1-.132.339l-3.215 3.216a.973.973 0 0 0 .147 1.48.94.94 0 0 0 .533.167h8.56a.967.967 0 0 0 .967-.967v-8.58a.963.963 0 0 0-.166-.538.966.966 0 0 0-.434-.354 1.01 1.01 0 0 0-.553-.048.961.961 0 0 0-.49.259L39.03 3.877a.555.555 0 0 1-.35.135.53.53 0 0 1-.191-.04.5.5 0 0 1-.16-.11A11.778 11.778 0 0 0 33.235.696a11.82 11.82 0 0 0-5.994-.25 11.772 11.772 0 0 0-5.34 2.73 11.761 11.761 0 0 0-3.308 5.002 1.965 1.965 0 0 0 .052 1.516c.111.236.267.447.458.622h.004Z"/><path d="M19.28 35.414h-3.64c-.994 0-1.8.805-1.8 1.799v3.642c0 .993.806 1.799 1.8 1.799h3.64c.994 0 1.8-.806 1.8-1.8v-3.641c0-.994-.806-1.799-1.8-1.799ZM41.947 35.414h-3.642c-.993 0-1.799.805-1.799 1.799v3.642c0 .993.806 1.799 1.8 1.799h3.641c.993 0 1.799-.806 1.799-1.8v-3.641c0-.994-.806-1.799-1.799-1.799ZM49.64 15.26a.629.629 0 0 1-.422-.227l-.907-1.33a1.797 1.797 0 0 0-.597-.509 1.715 1.715 0 0 0-.756-.203H44.37c-.263.012-.522.08-.757.203-.23.124-.437.299-.593.51l-.907 1.329a.628.628 0 0 1-.422.227H39.99a2.452 2.452 0 0 0-2.273 2.475v7.176c0 .601.243 1.182.669 1.608a2.27 2.27 0 0 0 1.608.665h11.354a2.275 2.275 0 0 0 2.276-2.273v-7.176a2.49 2.49 0 0 0-.644-1.687 2.46 2.46 0 0 0-1.628-.788H49.64Zm-1.469 7.008c-.215.41-.529.76-.915 1.02a2.852 2.852 0 0 1-1.791.48 2.866 2.866 0 0 1-1.703-.72 2.869 2.869 0 0 1-.9-1.615 2.852 2.852 0 0 1 .29-1.827 2.852 2.852 0 0 1 1.354-1.262 2.846 2.846 0 0 1 3.39.848c.39.501.598 1.114.598 1.747.004.466-.112.924-.33 1.333l.007-.003Z"/></g></g><defs><clipPath id="a"><path fill="#fff" d="M0 .176h60v60H0z"/></clipPath><clipPath id="b"><path fill="#fff" d="M6.447.176h47.406v59.83H6.447z"/></clipPath></defs></svg>
