<svg xmlns="http://www.w3.org/2000/svg" fill="#f4f4f5" viewBox="0 0 60 61"><g fill="#f4f4f5" clip-path="url(#a)"><path d="M28.475 8.864a20.622 20.622 0 0 0-12.597 5.22l5.43 5.428a12.987 12.987 0 0 1 7.167-2.968v-7.68ZM19.587 21.232l-5.429-5.429A20.606 20.606 0 0 0 8.934 28.4h7.676a12.997 12.997 0 0 1 2.977-7.168ZM42.773 28.4h7.676a20.628 20.628 0 0 0-5.224-12.597l-5.43 5.43a13.017 13.017 0 0 1 2.978 7.167ZM43.502 14.083a20.622 20.622 0 0 0-12.597-5.219v7.677a13.026 13.026 0 0 1 7.168 2.969l5.43-5.43v.003ZM30.908 50.918A20.622 20.622 0 0 0 43.505 45.7l-5.429-5.429a12.987 12.987 0 0 1-7.168 2.969v7.68ZM39.796 38.553l5.429 5.429a20.606 20.606 0 0 0 5.224-12.597h-7.676a12.998 12.998 0 0 1-2.977 7.168ZM16.61 31.385H8.934a20.628 20.628 0 0 0 5.224 12.597l5.43-5.43a13.017 13.017 0 0 1-2.978-7.167ZM15.878 45.7a20.622 20.622 0 0 0 12.597 5.218v-7.676a13.027 13.027 0 0 1-7.168-2.97l-5.429 5.43v-.003ZM26.653 30.9a3.087 3.087 0 0 0 3.082 3.083 3.087 3.087 0 0 0 3.082-3.082c0-2.146-1.906-10.788-2.124-11.765a.982.982 0 0 0-1.916 0c-.219.977-2.124 9.62-2.124 11.765ZM53.706 29.027a1.305 1.305 0 1 0 0 2.61c.91.001 4.568-.806 4.98-.898a.417.417 0 0 0 0-.813c-.415-.091-4.073-.899-4.98-.899ZM5.354 31.635a1.307 1.307 0 0 0 0-2.61c-.91 0-4.568.807-4.98.899a.417.417 0 0 0 0 .813c.415.09 4.073.898 4.98.898ZM30.835 54.506a1.307 1.307 0 0 0-2.61 0c0 .91.807 4.568.899 4.98a.417.417 0 0 0 .813 0c.091-.415.898-4.073.898-4.98ZM26.645.176h1.316l2.31 3.755.015-.017-.064-3.738h1.461V6.15H30.36l-2.277-3.634-.016.009.04 3.625h-1.461V.176Z"/></g><defs><clipPath id="a"><path fill="#fff" d="M0 .176h60v60H0z"/></clipPath></defs></svg>
