<svg xmlns="http://www.w3.org/2000/svg" fill="#f4f4f5" viewBox="0 0 60 61"><path fill="#f4f4f5" d="m3.578 30.25 7.29 1.153a34.245 34.245 0 0 1 1.81-6.248c.241-.612 1.27-2.615 1.496-3.055 1.537-2.963 3.44-5.693 5.518-8.136l-9.17.723A4.372 4.372 0 0 0 7.175 16.7l-5.67 8.766a3.154 3.154 0 0 0-.246 2.971 3.035 3.035 0 0 0 2.315 1.813h.004ZM30.07 56.478a3.15 3.15 0 0 0 1.81 2.42c.402.185.828.273 1.254.273.597 0 1.19-.18 1.708-.529l8.758-5.928a4.604 4.604 0 0 0 2.009-3.5l.75-9.972c-4.847 4.038-10.846 7.45-17.563 8.831l1.274 8.405ZM28.125 44.263h-.143a4.306 4.306 0 0 1-2.916-1.229l-8.703-8.515a4.214 4.214 0 0 1-1.212-3.728c.42-2.47 1.222-4.974 2.374-7.426 1.32-2.795 3.083-5.498 5.25-8.043 3.3-3.875 7.438-7.236 11.35-9.215 7.66-3.876 15.668-4.09 19.755-3.876 2.194.12 3.935 1.845 4.06 4.01v.056c.222 4.028-.01 11.848-3.967 19.344-1.967 3.718-5.282 7.672-9.096 10.852-4.629 3.857-9.813 6.453-14.979 7.51-.375.074-.745.148-1.12.209a3.775 3.775 0 0 1-.648.05h-.005ZM51.658 5.86c-3.994 0-10.067.603-15.867 3.537-3.49 1.766-7.212 4.798-10.212 8.316-1.953 2.295-3.54 4.724-4.721 7.223-1.01 2.146-1.708 4.33-2.078 6.49v.06a.487.487 0 0 0 .162.394l8.697 8.516a.656.656 0 0 0 .43.176h.103c.342-.056.662-.116.98-.181 4.574-.937 9.198-3.268 13.36-6.736 3.458-2.883 6.448-6.434 8.198-9.744 3.555-6.735 3.749-13.833 3.545-17.467v-.014c-.023-.283-.273-.505-.583-.524a37.116 37.116 0 0 0-2.023-.05l.01.004Zm-10.4 19.205c-1.773 0-3.44-.69-4.69-1.942a6.608 6.608 0 0 1-1.944-4.7c0-1.776.69-3.445 1.944-4.701a6.584 6.584 0 0 1 4.69-1.942c1.772 0 3.439.69 4.688 1.942a6.607 6.607 0 0 1 1.945 4.7c0 1.776-.69 3.445-1.944 4.701a6.584 6.584 0 0 1-4.69 1.942Zm0-9.6c-.792 0-1.533.306-2.088.862a2.94 2.94 0 0 0-.866 2.096c0 .792.31 1.534.866 2.095a2.908 2.908 0 0 0 2.087.862c.792 0 1.533-.306 2.088-.862a2.94 2.94 0 0 0 .866-2.095c0-.793-.306-1.535-.866-2.091a2.928 2.928 0 0 0-2.087-.862v-.005ZM19.983 42.673c-.13-.241-.467-.158-.495.11-.12 1.025-.227 2.04-.421 3.037-.25 1.284-.94 2.374-1.847 3.31-.926.955-2.06 1.58-3.3 2.021-1.25.445-2.486.668-3.273.621-.148-.009-.167-.185-.028-.236 2.61-1.043 3.814-3.556 2.98-6.235a16.389 16.389 0 0 1-.439-1.618c-.495-2.457.732-4.241 3.05-4.524.27-.033.394-.357.177-.52-1.213-.894-2.99-1.372-4.592-1.149-3.472.491-5.92 2.406-7.462 5.521a12.85 12.85 0 0 0-1.12 3.398c-.06.315.32.454.504.19.056-.079.111-.158.172-.232.722-.931 1.624-1.608 2.828-1.752.805-.093 1.152.352.865 1.103-.106.283-.231.57-.425.793-.709.825-1.426 1.655-2.195 2.424-2.43 2.434-3.879 5.262-3.629 8.803.019.232.042.464.084.691.027.167.254.19.333.042.227-.431.449-.89.722-1.312l5.467-2.795h.028c1.717.055 3.439.157 5.156.134 4.972-.07 8.554-5.131 7.693-9.35-.176-.876-.43-1.724-.851-2.485l.009.01h.01Z"/></svg>
