<svg xmlns="http://www.w3.org/2000/svg" fill="#f4f4f5" viewBox="0 0 60 61"><mask id="a" width="55" height="52" x="2" y="4.176" fill="#f4f4f5" maskUnits="userSpaceOnUse"><path fill="#fff" d="M2 4.176h55v52H2z"/><path d="M54.775 54.4a.775.775 0 0 1-.775.776H4.987a.766.766 0 0 1-.766-.766c0-9.356 0-18.71-.006-28.065 0-.29 0-.626-.14-.86-1.066-1.785-1.211-3.736-.981-5.71.28-2.404.703-4.79 1.037-7.188.082-.586.082-1.185.084-1.779.01-1.536.006-3.072.004-4.632a1 1 0 0 1 1-1H54.28c.252 0 .489.187.492.439.007.496.021.993 0 1.49-.149 3.246.174 6.45.76 9.646.4 2.184.708 4.402.207 6.626-.113.5-.235 1.029-.5 1.455-.404.647-.472 1.314-.472 2.04.01 9.177.007 18.353.007 27.529Zm-6.996-23.013a1 1 0 0 1 1 1v19.382a1 1 0 0 0 1 1h1.542a1 1 0 0 0 1-1V28.82c0-.65-.614-1.123-1.262-1.072-1.62.128-3.102-.321-4.484-1.299-.12-.085-.45-.002-.612.107-2.434 1.635-5.219 1.642-7.649-.025-.301-.207-.492-.2-.788.005-2.41 1.665-5.231 1.664-7.636-.007-.296-.206-.485-.208-.783 0-2.406 1.67-5.224 1.672-7.636.009-.293-.203-.485-.217-.788-.01-2.428 1.672-5.228 1.677-7.634.01-.33-.23-.52-.137-.842.014-.894.421-1.802.894-2.757 1.091-.57.118-1.168.1-1.77.073a.956.956 0 0 0-.999.966v23.081a1 1 0 0 0 1 1h26.85a1 1 0 0 0 1-1V32.387a1 1 0 0 1 1-1h11.248Zm4.585-23.83-.001-.001H7.627a.99.99 0 0 0-.993 1c.006.636.01 1.26-.02 1.884-.024.539.16.668.683.661 2.186-.027 4.372-.01 6.557-.01h37.6c.182 0 .377.042.537-.015.146-.053.355-.215.357-.334.029-1.047.017-2.095.017-3.185ZM38.974 33.77a1 1 0 0 0-1 1V51.76a1 1 0 0 0 1 1h6.332a1 1 0 0 0 1-1V34.769a1 1 0 0 0-1-1h-6.331ZM13.913 13.495c-.029.11-.056.166-.056.22-.003 3.356-.01 6.713.01 10.069 0 .215.166.485.34.633 1.457 1.249 3.624 1.284 5.174.126.347-.26.506-.54.503-.994-.022-3.158-.011-6.314-.011-9.473a.583.583 0 0 0-.583-.583h-5.376l-.001.002Zm8.714.007c-.172 0-.346.123-.346.295-.001 3.311-.012 6.624.013 9.935.002.247.197.56.398.729 1.452 1.214 3.597 1.223 5.119.076.352-.264.493-.56.492-1.004-.018-3.133-.01-6.266-.011-9.4 0-.354-.309-.63-.663-.63h-5.002Zm8.127.004c-.021.122-.045.198-.045.272-.002 3.332-.01 6.663.013 9.995 0 .23.192.517.382.68 1.443 1.216 3.584 1.24 5.117.099.348-.26.511-.546.51-.996-.019-3.153-.01-6.305-.011-9.458 0-.334-.297-.592-.631-.592h-5.335Zm8.428-.01c-.027.113-.05.17-.05.225-.004 3.355-.011 6.713.01 10.068 0 .213.17.482.345.631 1.455 1.248 3.616 1.28 5.174.12.352-.26.5-.545.497-.996-.021-3.137-.01-6.276-.012-9.412 0-.357-.31-.639-.666-.639h-5.297l-.001.002Zm-27.739-.019H7.234c-.18 0-.395-.056-.531.02-.153.085-.31.283-.338.451-.251 1.467-.506 2.933-.7 4.408-.2 1.514-.398 3.036-.045 4.557.478 2.053 1.92 2.91 3.954 2.302.47-.14.903-.415 1.337-.654.402-.22.551-.557.542-1.035-.03-1.567-.012-3.135-.012-4.703V13.48l.001-.002Zm36.89 0a.78.78 0 0 0-.78.78v8.69c0 1.327.21 1.7 1.487 2.129.608.204 1.29.263 1.94.268.664.006 1.197-.329 1.639-.856.802-.958 1.019-2.108.917-3.246-.223-2.484-.598-4.957-.934-7.43-.018-.127-.247-.319-.38-.32-1.275-.02-2.55-.017-3.89-.015Z"/><path d="M10.964 49.229a.7.7 0 0 1-.7-.7V32.045c0-.37.291-.692.661-.692 6.757 0 13.516.007 20.273-.014.597-.002.721.187.72.741-.02 5.48-.022 10.959 0 16.44.001.58-.17.723-.742.721-6.737-.02-13.474-.012-20.212-.012Zm1.707-3.43a1 1 0 0 0 1 1h14.793a1 1 0 0 0 1-1V34.786a1 1 0 0 0-1-1H13.671a1 1 0 0 0-1 1V45.8Z"/></mask><path fill="#ffffff" d="M54.775 54.4a.775.775 0 0 1-.775.776H4.987a.766.766 0 0 1-.766-.766c0-9.356 0-18.71-.006-28.065 0-.29 0-.626-.14-.86-1.066-1.785-1.211-3.736-.981-5.71.28-2.404.703-4.79 1.037-7.188.082-.586.082-1.185.084-1.779.01-1.536.006-3.072.004-4.632a1 1 0 0 1 1-1H54.28c.252 0 .489.187.492.439.007.496.021.993 0 1.49-.149 3.246.174 6.45.76 9.646.4 2.184.708 4.402.207 6.626-.113.5-.235 1.029-.5 1.455-.404.647-.472 1.314-.472 2.04.01 9.177.007 18.353.007 27.529Zm-6.996-23.013a1 1 0 0 1 1 1v19.382a1 1 0 0 0 1 1h1.542a1 1 0 0 0 1-1V28.82c0-.65-.614-1.123-1.262-1.072-1.62.128-3.102-.321-4.484-1.299-.12-.085-.45-.002-.612.107-2.434 1.635-5.219 1.642-7.649-.025-.301-.207-.492-.2-.788.005-2.41 1.665-5.231 1.664-7.636-.007-.296-.206-.485-.208-.783 0-2.406 1.67-5.224 1.672-7.636.009-.293-.203-.485-.217-.788-.01-2.428 1.672-5.228 1.677-7.634.01-.33-.23-.52-.137-.842.014-.894.421-1.802.894-2.757 1.091-.57.118-1.168.1-1.77.073a.956.956 0 0 0-.999.966v23.081a1 1 0 0 0 1 1h26.85a1 1 0 0 0 1-1V32.387a1 1 0 0 1 1-1h11.248Zm4.585-23.83-.001-.001H7.627a.99.99 0 0 0-.993 1c.006.636.01 1.26-.02 1.884-.024.539.16.668.683.661 2.186-.027 4.372-.01 6.557-.01h37.6c.182 0 .377.042.537-.015.146-.053.355-.215.357-.334.029-1.047.017-2.095.017-3.185ZM38.974 33.77a1 1 0 0 0-1 1V51.76a1 1 0 0 0 1 1h6.332a1 1 0 0 0 1-1V34.769a1 1 0 0 0-1-1h-6.331ZM13.913 13.495c-.029.11-.056.166-.056.22-.003 3.356-.01 6.713.01 10.069 0 .215.166.485.34.633 1.457 1.249 3.624 1.284 5.174.126.347-.26.506-.54.503-.994-.022-3.158-.011-6.314-.011-9.473a.583.583 0 0 0-.583-.583h-5.376l-.001.002Zm8.714.007c-.172 0-.346.123-.346.295-.001 3.311-.012 6.624.013 9.935.002.247.197.56.398.729 1.452 1.214 3.597 1.223 5.119.076.352-.264.493-.56.492-1.004-.018-3.133-.01-6.266-.011-9.4 0-.354-.309-.63-.663-.63h-5.002Zm8.127.004c-.021.122-.045.198-.045.272-.002 3.332-.01 6.663.013 9.995 0 .23.192.517.382.68 1.443 1.216 3.584 1.24 5.117.099.348-.26.511-.546.51-.996-.019-3.153-.01-6.305-.011-9.458 0-.334-.297-.592-.631-.592h-5.335Zm8.428-.01c-.027.113-.05.17-.05.225-.004 3.355-.011 6.713.01 10.068 0 .213.17.482.345.631 1.455 1.248 3.616 1.28 5.174.12.352-.26.5-.545.497-.996-.021-3.137-.01-6.276-.012-9.412 0-.357-.31-.639-.666-.639h-5.297l-.001.002Zm-27.739-.019H7.234c-.18 0-.395-.056-.531.02-.153.085-.31.283-.338.451-.251 1.467-.506 2.933-.7 4.408-.2 1.514-.398 3.036-.045 4.557.478 2.053 1.92 2.91 3.954 2.302.47-.14.903-.415 1.337-.654.402-.22.551-.557.542-1.035-.03-1.567-.012-3.135-.012-4.703V13.48l.001-.002Zm36.89 0a.78.78 0 0 0-.78.78v8.69c0 1.327.21 1.7 1.487 2.129.608.204 1.29.263 1.94.268.664.006 1.197-.329 1.639-.856.802-.958 1.019-2.108.917-3.246-.223-2.484-.598-4.957-.934-7.43-.018-.127-.247-.319-.38-.32-1.275-.02-2.55-.017-3.89-.015Z"/><path fill="#ffffff" d="M10.964 49.229a.7.7 0 0 1-.7-.7V32.045c0-.37.291-.692.661-.692 6.757 0 13.516.007 20.273-.014.597-.002.721.187.72.741-.02 5.48-.022 10.959 0 16.44.001.58-.17.723-.742.721-6.737-.02-13.474-.012-20.212-.012Zm1.707-3.43a1 1 0 0 0 1 1h14.793a1 1 0 0 0 1-1V34.786a1 1 0 0 0-1-1H13.671a1 1 0 0 0-1 1V45.8Z"/><path fill="#ffffff" d="M30.753 13.506h.25v-.25h-.25v.25Zm0-.25a.25.25 0 0 0-.214.121.25.25 0 1 0 .464.129h-.5a.25.25 0 0 1 .122-.215.25.25 0 1 1 .128.465v-.5ZM4.215 26.345h-.5.5Zm-.14-.86.43-.256-.43.256Zm-.981-5.71-.497-.059.497.058Zm1.037-7.188-.495-.07v.001l.495.069Zm.084-1.779-.5-.003v.001l.5.002Zm50.558-5.193-.5.006v.001l.5-.007Zm0 1.49.5.022v-.001l-.5-.022Zm.76 9.646-.493.09.492-.09Zm.207 6.626.488.11-.488-.11Zm-.5 1.455.424.265-.425-.265Zm-.472 2.04h-.5v.001h.5Zm-8.193-.424-.29.408h.001l.289-.408Zm-.612.107-.279-.416.279.416Zm-7.649-.025.283-.413-.283.413Zm-.788.005-.284-.412.284.412Zm-7.636-.007-.286.41.286-.41Zm-.783 0 .285.41h.002l-.287-.41Zm-7.636.009-.285.41.001.001.284-.411Zm-.788-.01-.283-.412v.001l.283.412Zm-7.634.01-.286.41.286-.41Zm-.842.014-.213-.452.213.452ZM9.45 27.642l.101.49-.1-.49ZM6.615 10.44l-.5-.024.5.024Zm.682.661-.006-.5H7.29l.007.5Zm44.694-.025.168.471.004-.001-.172-.47Zm.357-.334-.5-.014v.007l.5.007Zm-38.492 2.974h.5-.5Zm.01 10.068h.5v-.003l-.5.003Zm.34.633.326-.38-.003-.002-.323.381Zm5.174.126.3.4-.3-.4Zm.503-.994-.5.004.5-.004Zm2.397-9.752h.5-.5Zm.013 9.935.5-.003-.5.003Zm.398.729-.321.383.321-.383Zm5.119.076-.301-.4v.001l.3.4Zm.492-1.004.5-.002-.5.002Zm-.011-9.4h-.5.5Zm2.417-.355h.5-.5Zm.013 9.995h.5v-.003l-.5.003Zm.382.68-.324.38.002.001.322-.382Zm5.117.099.298.4-.298-.4Zm.51-.996.5-.002-.5.002Zm-.011-9.458h-.5.5Zm2.412-.377h.5-.5Zm.01 10.068h.5v-.003l-.5.003Zm.345.631-.326.38.326-.38Zm5.174.12-.298-.4.298.4Zm.497-.996-.5.003.5-.003Zm-.012-9.412h-.5.5Zm-38.442-.635.244.436-.244-.436Zm-.338.451.493.085-.493-.085Zm-.7 4.408.496.066-.496-.066Zm-.045 4.557-.487.113.487-.113Zm3.954 2.302-.143-.48.143.48Zm1.337-.654-.24-.439h-.002l.242.439Zm.542-1.035.5-.01-.5.01Zm37.586 1.55.16-.474h-.001l-.159.474Zm1.94.268-.004.5.004-.5Zm1.639-.856-.384-.321.383.32Zm.917-3.246-.498.045.498-.045Zm-.934-7.43.496-.068v-.003l-.496.07Zm-.38-.32-.008.5h.001l.007-.5ZM31.198 31.339l-.002-.5.002.5Zm.72.741.5.002-.5-.002Zm0 16.44.5-.002-.5.002Zm-.742.721.002-.5-.002.5Zm-.423-35.735v-.5h-.42l-.072.414.492.086Zm17.578-.03.001.5v-.5ZM6.634 8.557l.5-.005-.5.005ZM7.68 27.715l-.022.5.022-.5Zm43.379.032.039.499-.04-.499ZM4.219 6.176h.5-.5ZM54 54.676H4.988v1H54v-1ZM4.722 54.41c0-9.356 0-18.71-.006-28.065h-1c.006 9.356.006 18.71.006 28.065h1Zm-.006-28.065c0-.14 0-.326-.02-.509a1.525 1.525 0 0 0-.19-.607l-.86.512a.56.56 0 0 1 .056.211c.014.116.014.243.014.393h1Zm-.21-1.117c-.989-1.654-1.138-3.48-.915-5.396l-.993-.116c-.237 2.034-.095 4.11 1.049 6.025l.858-.513Zm-.915-5.396c.28-2.4.698-4.749 1.036-7.176l-.99-.138c-.33 2.368-.759 4.793-1.04 7.198l.994.116Zm1.036-7.175c.088-.627.087-1.261.09-1.848l-1-.003c-.003.602-.003 1.165-.08 1.711l.99.14Zm.09-1.846c.008-1.538.005-3.076.003-4.636l-1 .001c.002 1.562.005 3.095-.004 4.63l1 .005Zm.503-5.135H54.28v-1H5.219v1Zm49.054-.054c.007.506.021.983 0 1.46l1 .044c.022-.515.007-1.033 0-1.518l-1 .014Zm0 1.46c-.15 3.294.177 6.538.767 9.76l.984-.18c-.58-3.17-.898-6.336-.752-9.535l-.998-.046Zm.767 9.76c.4 2.18.689 4.31.212 6.425l.976.22c.525-2.331.197-4.638-.204-6.826l-.984.18Zm.213 6.424c-.117.516-.225.96-.438 1.302l.849.529c.318-.51.455-1.127.564-1.61l-.975-.22Zm-.438 1.302c-.479.767-.547 1.55-.547 2.305h1c0-.699.067-1.25.396-1.776l-.849-.53Zm-.547 2.305c.01 9.176.007 18.352.007 27.528h1c0-9.176.003-18.352-.007-27.529l-1 .001Zm-5.99 5.514v19.382h1V32.387h-1Zm1.5 20.882h1.543v-1H49.78v1Zm3.043-1.5V28.82h-1v22.95h1ZM51.02 27.25c-1.49.117-2.859-.292-4.155-1.21l-.578.817c1.468 1.038 3.065 1.527 4.812 1.39l-.079-.997Zm-4.155-1.209a.73.73 0 0 0-.388-.126 1.19 1.19 0 0 0-.29.024 1.45 1.45 0 0 0-.502.201l.558.83.003-.002a.231.231 0 0 1 .047-.021.57.57 0 0 1 .091-.027c.032-.007.046-.006.044-.006a.33.33 0 0 1-.141-.057l.578-.816Zm-1.18.1c-2.265 1.522-4.828 1.527-7.087-.023l-.566.825c2.601 1.784 5.61 1.776 8.21.028l-.557-.83Zm-7.088-.023c-.186-.128-.412-.242-.684-.239-.27.004-.491.122-.67.245l.568.823c.118-.08.14-.068.114-.068-.027 0-.007-.014.108.064l.564-.825Zm-1.354.007c-2.24 1.547-4.834 1.545-7.067-.007l-.57.822c2.576 1.79 5.624 1.791 8.205.007l-.568-.822Zm-7.066-.006c-.18-.126-.404-.245-.676-.245s-.497.118-.679.245l.572.82c.116-.08.135-.065.105-.065-.029 0-.01-.015.106.065l.572-.82Zm-1.354 0c-2.235 1.55-4.826 1.553-7.067.007l-.568.823c2.583 1.782 5.627 1.78 8.205-.01l-.57-.82Zm-7.066.008c-.175-.122-.395-.241-.663-.247-.273-.007-.502.106-.693.236l.566.825c.112-.077.131-.061.103-.062-.023 0 0-.012.117.07l.57-.822Zm-1.356-.01c-2.26 1.554-4.833 1.557-7.067.01l-.57.822c2.58 1.787 5.606 1.779 8.204-.008l-.567-.824Zm-7.066.01c-.236-.163-.483-.25-.761-.222-.232.024-.444.131-.579.195l.426.904c.085-.04.14-.065.188-.084a.3.3 0 0 1 .068-.02h-.001.002a.342.342 0 0 1 .086.049l.57-.822Zm-1.34-.027c-.925.435-1.764.872-2.645 1.054l.202.979c1.029-.213 2.006-.722 2.869-1.129l-.426-.904Zm-2.645 1.054c-.5.103-1.04.09-1.646.063l-.045.998c.597.028 1.254.05 1.893-.082l-.202-.98ZM6.181 28.68v23.081h1v-23.08h-1Zm1.5 24.581h26.85v-1H7.68v1Zm28.35-1.5V32.387h-1v19.375h1Zm.5-19.875h11.248v-1H36.53v1ZM52.363 7.056H7.627v1h44.736v-1ZM6.134 8.56c.006.637.01 1.249-.019 1.856l1 .048c.03-.64.025-1.278.02-1.913l-1 .01Zm-.019 1.857c-.013.293.013.667.298.928.267.242.63.26.89.256l-.013-1a1.042 1.042 0 0 1-.218-.013c-.033-.007-.015-.01.015.018.034.03.039.058.035.044a.712.712 0 0 1-.008-.187l-.999-.046ZM7.303 11.6c2.182-.026 4.36-.01 6.551-.01v-1c-2.18 0-4.373-.016-6.563.01l.012 1Zm6.551-.01H51.455v-1H13.854v1Zm37.6 0c.028 0 .06.001.105.004l.153.01c.107.004.275.004.447-.058l-.335-.942c.012-.004.002.003-.074 0-.036-.001-.071-.004-.124-.008a2.553 2.553 0 0 0-.171-.006v1Zm.71-.045c.138-.051.279-.14.389-.236.056-.05.12-.114.173-.192.049-.072.12-.2.122-.368l-1-.015a.368.368 0 0 1 .05-.178c.01-.014.01-.012-.004 0a.352.352 0 0 1-.047.035c-.018.011-.029.015-.028.015l.344.939Zm.684-.79c.03-1.056.017-2.117.017-3.199h-1c0 1.098.012 2.134-.017 3.171l1 .028ZM37.475 34.769V51.76h1V34.769h-1Zm1.5 18.492h6.33v-1h-6.33v1Zm7.83-1.5V34.769h-1V51.76h1Zm-1.5-18.492h-6.33v1h6.33v-1Zm-31.877-19.9c-.012.044-.018.061-.034.114-.011.039-.038.127-.038.233h1a.292.292 0 0 1-.005.057l.001-.003.007-.023.01-.033.027-.093-.968-.252Zm-.072.346c-.003 3.355-.01 6.714.01 10.072l1-.006c-.02-3.353-.013-6.708-.01-10.065l-1-.001Zm.01 10.069c0 .225.082.433.169.587.09.16.211.311.348.427l.646-.763a.6.6 0 0 1-.159-.234c-.006-.02-.005-.026-.005-.017h-1Zm.515 1.012c1.642 1.408 4.068 1.44 5.799.147l-.6-.8c-1.37 1.024-3.276.985-4.548-.106l-.651.76Zm5.799.147a1.76 1.76 0 0 0 .526-.594c.129-.247.179-.515.177-.804l-1 .008a.69.69 0 0 1-.064.335.775.775 0 0 1-.239.255l.6.8Zm.703-1.397c-.022-3.156-.011-6.31-.011-9.47h-1c0 3.156-.01 6.316.01 9.477l1-.007Zm-1.094-10.553h-5.376v1h5.376v-1Zm2.491.804c-.001 3.31-.012 6.625.013 9.94l1-.008c-.025-3.309-.014-6.619-.013-9.931h-1Zm.013 9.939c.002.241.093.467.19.638.1.176.236.344.387.47l.643-.766a.776.776 0 0 1-.21-.306c-.01-.03-.01-.045-.01-.043l-1 .007Zm.578 1.109c1.639 1.37 4.041 1.37 5.74.092l-.602-.799c-1.346 1.013-3.232.997-4.497-.06l-.641.767Zm5.74.092c.222-.168.405-.366.527-.615.121-.25.165-.514.163-.79l-1 .003a.767.767 0 0 1-.062.349.717.717 0 0 1-.23.254l.601.799Zm.69-1.407c-.017-3.131-.008-6.261-.01-9.397h-1c.002 3.132-.007 6.268.01 9.403l1-.006ZM27.63 13.002h-5.003v1h5.002v-1Zm2.632.418c-.01.055-.017.081-.029.143-.01.05-.024.127-.024.215h1c0 .014-.002.016.005-.02l.014-.068.019-.098-.985-.172Zm-.053.357c-.002 3.331-.01 6.665.013 10l1-.007c-.024-3.33-.015-6.658-.013-9.992h-1Zm.013 9.996c0 .241.095.461.19.62.099.167.23.322.368.44l.648-.762a.79.79 0 0 1-.157-.188c-.049-.083-.05-.122-.05-.11h-1Zm.56 1.061c1.629 1.375 4.028 1.391 5.737.119l-.597-.802c-1.356 1.009-3.239.98-4.496-.081l-.644.764Zm5.737.119c.215-.16.402-.35.53-.595a1.68 1.68 0 0 0 .181-.804l-1 .004a.688.688 0 0 1-.066.335.788.788 0 0 1-.242.258l.597.802Zm.711-1.4c-.018-3.15-.009-6.3-.01-9.456l-1 .001c.001 3.15-.008 6.307.01 9.461l1-.006Zm-1.141-10.547h-5.335v1h5.335v-1Zm2.606.374c-.012.052-.018.069-.032.124a.852.852 0 0 0-.031.217h1a.255.255 0 0 1-.004.044c0 .005 0 .004.002-.009l.015-.055a2.99 2.99 0 0 0 .023-.09l-.973-.23Zm-.063.34c-.004 3.355-.011 6.714.01 10.072l1-.006c-.021-3.353-.014-6.708-.01-10.065h-1Zm.01 10.07c0 .227.086.435.174.587.09.159.212.308.345.423l.651-.76a.645.645 0 0 1-.165-.238c-.007-.02-.005-.024-.005-.013h-1Zm.52 1.01c1.641 1.407 4.062 1.433 5.797.142l-.596-.802c-1.38 1.026-3.281.988-4.55-.1l-.651.76Zm5.797.142c.219-.162.405-.355.53-.603.126-.25.171-.516.17-.8l-1 .009a.722.722 0 0 1-.063.34.729.729 0 0 1-.233.252l.596.802Zm.7-1.401c-.023-3.135-.012-6.27-.014-9.41h-1c.002 3.135-.008 6.277.013 9.416l1-.006Zm-1.18-10.548h-5.296v1h5.297v-1Zm-33.036-.016H7.234v1H11.442v-1Zm-4.208 0c-.022 0-.05-.001-.096-.005-.04-.004-.102-.01-.161-.013a.952.952 0 0 0-.519.102l.489.872a.195.195 0 0 1-.065.025H6.927l.124.01c.049.004.114.01.183.01v-1Zm-.775.084a1.235 1.235 0 0 0-.37.328 1.114 1.114 0 0 0-.217.476l.986.167c-.002.014-.005.015 0 .004a.326.326 0 0 1 .067-.086l.022-.017-.488-.872Zm-.587.803c-.25 1.463-.507 2.94-.702 4.427l.991.13c.192-1.463.445-2.92.697-4.388l-.986-.17ZM5.17 18.29c-.2 1.5-.414 3.112-.037 4.736l.974-.226c-.33-1.419-.149-2.85.054-4.378l-.991-.132Zm-.037 4.736c.26 1.117.801 1.983 1.628 2.467.828.484 1.849.532 2.956.2l-.286-.958c-.926.277-1.643.2-2.165-.105-.522-.306-.94-.894-1.159-1.83l-.974.226Zm4.584 2.668c.538-.16 1.04-.477 1.436-.696l-.484-.875c-.473.261-.835.492-1.238.612l.286.959Zm1.434-.695a1.48 1.48 0 0 0 .632-.634c.134-.267.176-.558.17-.848l-1 .018c.004.188-.025.304-.063.38a.485.485 0 0 1-.22.207l.482.877Zm.802-1.483c-.03-1.56-.012-3.117-.012-4.692h-1c0 1.56-.018 3.138.012 4.712l1-.02Zm-.012-4.692V13.479h-1V18.823h1Zm35.11-4.566V22.947h1V14.258h-1Zm0 8.689c0 .658.044 1.229.351 1.682.313.462.831.704 1.478.921l.318-.948c-.631-.212-.857-.37-.968-.534-.117-.173-.179-.452-.179-1.121h-1Zm1.829 2.603c.681.229 1.425.289 2.095.294l.008-1c-.629-.005-1.25-.062-1.785-.242l-.318.948Zm2.095.294c.86.007 1.523-.435 2.026-1.036l-.767-.641c-.38.454-.783.681-1.251.677l-.008 1Zm2.026-1.035c.91-1.087 1.142-2.38 1.032-3.611l-.996.09c.093 1.043-.108 2.05-.803 2.879l.767.642Zm1.032-3.611c-.224-2.5-.602-4.99-.936-7.454l-.991.135c.337 2.484.71 4.938.93 7.408l.997-.09Zm-.937-7.457a.736.736 0 0 0-.14-.327 1.105 1.105 0 0 0-.399-.337.768.768 0 0 0-.33-.085l-.013 1a.302.302 0 0 1-.082-.012c-.014-.004-.021-.008-.021-.008l.006.004.016.012c.013.011.018.018.016.016 0-.002-.007-.01-.015-.027a.328.328 0 0 1-.028-.095l.99-.14Zm-.867-.75c-1.28-.019-2.56-.016-3.898-.014l.001 1c1.34-.002 2.611-.005 3.881.015l.015-1ZM10.764 48.53V32.045h-1v16.484h1Zm.16-16.676c6.756 0 13.516.007 20.274-.014l-.003-1c-6.756.021-13.513.014-20.271.014v1Zm20.274-.014c.128 0 .198.01.232.02.027.007.007.006-.019-.022-.024-.026-.02-.04-.011-.001.01.043.017.117.016.242l1 .004c.001-.271-.016-.644-.264-.917-.262-.288-.643-.327-.957-.326l.003 1Zm.218.24c-.02 5.48-.021 10.96 0 16.443l1-.004c-.021-5.48-.02-10.958 0-16.436l-1-.004Zm0 16.442c0 .126-.009.195-.018.23-.008.03-.008.01.019-.015.026-.024.04-.02.003-.012-.042.01-.116.018-.243.017l-.003 1c.286.001.66-.023.931-.28.279-.264.312-.643.311-.943l-1 .003Zm-.24.22c-6.738-.02-13.476-.012-20.213-.012v1c6.738 0 13.474-.007 20.21.012l.004-1ZM13.672 47.3h14.793v-1H13.671v1Zm16.293-1.5V34.786h-1V45.8h1Zm-1.5-12.513H13.671v1h14.793v-1Zm-16.293 1.5V45.8h1V34.786h-1Zm1.5-1.5a1.5 1.5 0 0 0-1.5 1.5h1a.5.5 0 0 1 .5-.5v-1Zm25.996-19.675c0 .004-.002.01-.005.019a.483.483 0 0 1-.14.231.507.507 0 0 1-.39.132.5.5 0 1 1 .549-.498h-1v.02a.462.462 0 0 0 .033.16.496.496 0 0 0 .399.316.5.5 0 1 0-.419-.61l.973.23Zm-2.449.487c0-.65-.563-1.092-1.13-1.092v1c.039 0 .077.016.103.04.023.021.027.04.027.052h1Zm-22.822-.477a.507.507 0 0 1-.165.26.5.5 0 1 1 .18-.386h-1l.001.022.005.05a.513.513 0 0 0 .089.22.501.501 0 0 0 .902-.357.501.501 0 0 0-.974-.082l-.006.021.968.252Zm33.655.637c0-.155.126-.28.281-.281l-.001-1c-.707 0-1.28.573-1.28 1.28h1ZM4.987 54.676a.266.266 0 0 1-.266-.266h-1c0 .699.566 1.266 1.266 1.266v-1Zm41.819-19.907a1.5 1.5 0 0 0-1.5-1.5v1a.5.5 0 0 1 .5.5h1Zm-8.331 0a.5.5 0 0 1 .5-.5v-1a1.5 1.5 0 0 0-1.5 1.5h1ZM7.627 7.056A1.49 1.49 0 0 0 6.134 8.56l1-.01a.49.49 0 0 1 .493-.494v-1Zm31.555 5.937a.502.502 0 0 0-.501.502h1a.498.498 0 0 1-.499.498v-1Zm13.18-4.937a.498.498 0 0 1-.498-.499h1a.502.502 0 0 0-.501-.501v1ZM10.766 32.045a.21.21 0 0 1 .056-.143.142.142 0 0 1 .104-.049v-1c-.675 0-1.16.576-1.16 1.192h1ZM22.78 13.797a.23.23 0 0 1-.078.178.115.115 0 0 1-.076.027v-1a.885.885 0 0 0-.55.194.771.771 0 0 0-.296.601h1Zm22.864.335c0-.66-.56-1.139-1.165-1.139v1c.047 0 .092.02.123.05.03.028.043.06.043.089h1Zm-9.613 18.255a.5.5 0 0 1 .5-.5v-1a1.5 1.5 0 0 0-1.5 1.5h1Zm-15.66-18.31c0-.599-.484-1.084-1.082-1.084v1c.046 0 .083.038.083.083h1Zm33.91-8.401.008.002.006.002c-.001 0-.006-.005-.012-.016a.103.103 0 0 1-.01-.043l1-.012c-.007-.59-.535-.933-.992-.933v1ZM7.703 27.216a1.456 1.456 0 0 0-1.522 1.465h1c0-.275.218-.478.477-.466l.045-1Zm5.968 19.083a.5.5 0 0 1-.5-.5h-1a1.5 1.5 0 0 0 1.5 1.5v-1Zm15.12-32.166c0-.66-.564-1.13-1.163-1.13v1c.047 0 .092.018.123.047.03.028.04.057.04.083h1ZM48.279 51.77a1.5 1.5 0 0 0 1.5 1.5v-1a.5.5 0 0 1-.5-.5h-1Zm1-19.382a1.5 1.5 0 0 0-1.5-1.5v1a.5.5 0 0 1 .5.5h1Zm-19.315 2.4a1.5 1.5 0 0 0-1.5-1.5v1a.5.5 0 0 1 .5.5h1Zm22.857-5.968c0-.998-.92-1.64-1.802-1.57l.079.997c.416-.033.723.269.723.573h1Zm-24.357 18.48a1.5 1.5 0 0 0 1.5-1.5h-1a.5.5 0 0 1-.5.5v1Zm22.857 5.97a1.5 1.5 0 0 0 1.5-1.5h-1a.5.5 0 0 1-.5.5v1ZM4.72 6.175a.5.5 0 0 1 .5-.5v-1a1.5 1.5 0 0 0-1.5 1.501h1ZM9.765 48.53a1.2 1.2 0 0 0 1.2 1.2v-1a.2.2 0 0 1-.2-.2h-1Zm4.148-35.536a.501.501 0 0 0-.501.502h1a.497.497 0 0 1-.499.498v-1Zm20.618 40.27a1.5 1.5 0 0 0 1.5-1.5h-1a.5.5 0 0 1-.5.5v1ZM11.94 13.478a.498.498 0 0 1-.499.498v-1a.502.502 0 0 0-.501.502h1ZM54 55.676c.704 0 1.275-.571 1.275-1.275h-1a.275.275 0 0 1-.275.275v1Zm-8.694-2.416a1.5 1.5 0 0 0 1.5-1.5h-1a.5.5 0 0 1-.5.5v1ZM6.18 51.763a1.5 1.5 0 0 0 1.5 1.5v-1a.5.5 0 0 1-.5-.5h-1Zm31.294-.002a1.5 1.5 0 0 0 1.5 1.5v-1a.5.5 0 0 1-.5-.5h-1Z" mask="url(#a)"/></svg>
