<svg xmlns="http://www.w3.org/2000/svg" fill="none" viewBox="0 0 36 36"><rect width="35.718" height="35.719" x=".141" y=".176" fill="#EF0C0C" fill-opacity=".1" rx="12"/><path fill="url(#a)" d="M19.985 18.24a.292.292 0 0 1 0-.412l6.506-6.505a1.258 1.258 0 0 0-1.778-1.778l-6.507 6.506a.292.292 0 0 1-.413 0l-6.505-6.506a1.254 1.254 0 0 0-1.778 0 1.254 1.254 0 0 0 0 1.778l6.505 6.505a.292.292 0 0 1 0 .413L9.51 24.746a1.258 1.258 0 0 0 1.778 1.778l6.505-6.503a.292.292 0 0 1 .413 0l6.505 6.505a1.256 1.256 0 0 0 1.778 0c.49-.49.49-1.287 0-1.778l-6.504-6.507Z"/><path fill="#E33E2B" d="M19.985 18.24a.292.292 0 0 1 0-.412l6.506-6.505a1.258 1.258 0 0 0-1.778-1.778l-6.507 6.506a.292.292 0 0 1-.413 0l-6.505-6.506a1.254 1.254 0 0 0-1.778 0 1.254 1.254 0 0 0 0 1.778l6.505 6.505a.292.292 0 0 1 0 .413L9.51 24.746a1.258 1.258 0 0 0 1.778 1.778l6.505-6.503a.292.292 0 0 1 .413 0l6.505 6.505a1.256 1.256 0 0 0 1.778 0c.49-.49.49-1.287 0-1.778l-6.504-6.507Z"/><path stroke="url(#b)" stroke-opacity=".3" stroke-width=".029" d="m11.278 9.556 6.505 6.505c.12.12.313.12.433 0l6.507-6.505a1.243 1.243 0 0 1 1.758 1.757l-6.506 6.505a.306.306 0 0 0 0 .433l6.503 6.507a1.243 1.243 0 0 1-1.757 1.758l-6.505-6.505a.306.306 0 0 0-.433 0l-6.505 6.503a1.242 1.242 0 1 1-1.758-1.758l6.506-6.505a.306.306 0 0 0 0-.433L9.52 11.313a1.24 1.24 0 0 1 0-1.757 1.24 1.24 0 0 1 1.758 0Z"/><defs><linearGradient id="a" x1="25.603" x2="5.866" y1="12.376" y2="13.019" gradientUnits="userSpaceOnUse"><stop stop-color="#808082"/><stop offset="1" stop-color="#EF0C0C" stop-opacity="0"/></linearGradient><linearGradient id="b" x1="11.049" x2="26.095" y1="15.12" y2="15.203" gradientUnits="userSpaceOnUse"><stop stop-color="#EF0C0C"/><stop offset="1" stop-color="#EF0C0C" stop-opacity="0"/></linearGradient></defs></svg>
