<svg xmlns="http://www.w3.org/2000/svg" fill="#fff" viewBox="0 0 610 50.7"><path d="M607.8 18.1h-.1l.1-.9v-1.5l-.3.3-.3-.8-.9-.9-.4-1.1-.4-.2-.1.2-.3-.4-.2-.8-.3-.4-.2-.6-.5-.3-.3-.4-.6-.1-.5-.5-.2-.6-.1-1.1-.3-.2-.2-.8v-.7l-.2-.5-.5-.5h-.2l-.3.2-.4-.8V4l-.2-.5v-.4l-.3-.1v-.8l-.4-.2-.2.2-.1.3v.6l-.3.4v.4l-.1.6-.2.7v.6l.1.4-.2.4v.9l-.2.5-.1.4-.4.3-.7-.3-.5-.5-.5-.1-.6-.4-.4-.2-1-.7-.5-.2.4-1.3v-.4l.4-.1.4-.8-.3-.4-.2.1-.4-.4-.4.6-.3-.2-.6-.1-.7-.2-.3-.1-.4-.3-.8-.1.5.3.2.4-.2.2-.6.3-.6-.1-.4.3-.2.3-.2.3.2.5-.5.2-.1.2-.3.4.3.3v.4l-.3-.1-.5-.2-.3.2-.1.3-.1.1v-.8l-.3-.1-.3-.4-.3-.2-.4.1-.2.4-.4.3-.3-.2-.4.3-.2.7-.3.2.3.5-.1.3-.6.2-.3-.1-.1.3.3.5-.1.5-.4-.7-.2-.4-.3.3-.3.4.1.5.2.5-.6.7-.2.7-.4.3-.4.1-.5.3-.5.1-.3.6-.5-.2-.5.6-.5-.1-.5.4-.3.5h-.3l-.3.6-.2.4-.4-.3v.5l-.1.3.2.6-.1.6.1.4.4.6.4.2-.1.7-.5-.3.1.4-.3-.1.4.7.3.4.4.8.4.5.6.3v.8l.3.6.8 1.1v.6l.1.7-.3.3.2.5.4.2.6.3 1.4-.3.8-.5.3-.3.6-.3.6-.1.3.3.5-.3h.3l.5-.3.1-.6.1-.2 1-.7.7.1 1.3-.6.3-.3.7-.2.7.1.3-.1.4.2.4.3h.5l.5.1.4.7.3.1.1.3.5.9.6.3.1-.3.2-.4.3-.3.5-.3-.1-.4.1-.2.4-.2-.1.7-.4 1.1-.2.4h.7l.1-.8.2.3v.6l-.2.5h.3l.4-.2.4.7.2.6.1.5 1 .9h.8l.5.3.4.3.7-.5.1-.3.1.4h.2l.6.5.6-.3.6-.5.4-.1h.6l.6-.3.2-.5V27l.1-.7.4-.8.2-.7.2-.3.2-.5.5-.7.3-.2.3-.5.3-.9v-.8l.3-.3.1-.4.2-.3-.1-1.8zm-4.9 12.4-.5.2-.4.2-.5-.3-.4-.2h-.5v.5l.4.6v.8l.3.6.3.4h.5l.1-.4.3-.2h.3v-.5l.2-.4v-1l-.1-.3zM4 2.1 2.7 17h1.9c.9-3.5.9-9.7 7.5-9.7h4.7v38.1l-7 .9v2.3h25.5v-2.3l-1.9-.1c-4.9-.8-5.1-.4-5.1-4.2V7.4h4.8c6.6 0 6.7 6.2 7.6 9.7h1.8l-1.3-15H4zm65.6 2.5.8.1c4.9.6 5.4.4 5.4 4.2v13.4h-15V5.5l6.2-.9V2.1H43.2v2.5l1.5.1c4.9.5 5.7.4 5.7 4.2v36.6l-7.2.9v2.3H67v-2.3l-.8-.1c-4.9-.6-5.4-.4-5.4-4.2V26.7h14.9v18.8l-6.2.9v2.3h23.7v-2.3l-.9-.1c-4.9-.5-5.2-.4-5.2-4.2V5.5l6.2-.9V2.1H69.6v2.5zM120 44c-7.7 0-7.3-.7-7.3-6.2v-11h8.1c2.4 0 5.3 0 5.2 6.2h1.8l1.2-16h-1.9c-.4 2.6-.9 5.3-5.4 5.3h-9V6.5h10.9c5.7 0 6.6 3.5 6.7 7h1.8l1-11.4h-38v2.5l.9.1c4.9.5 5.2.4 5.2 4.2v36.6l-6.2.9v2.3h37.8l1.2-13.2h-1.8c-1.5 6.2-3.5 8.5-12.2 8.5zm68.6-1.1L174.9 2.1h-9.8l-14.9 43.4-5.8.9v2.3H161v-2.3c-4.4-.5-6.1-1-5-4.4.2-.6 1.2-3.9 2.4-6.5h15.9l3.5 10.1-7 .8v2.3h24.6v-2.3l-2.2-.2c-2-.3-3.6-.3-4.6-3.3zm-28.5-12.7c3-8.8 6.5-18.8 6.5-18.8l6.2 18.8h-12.7zm75.6-28.1h-17.6v2.5l.9.1c4.9.5 5.2.4 5.2 4.2v21.6c0 7.5-.4 13.8-10.2 13.8-8.3 0-10.1-5.3-10.1-13.1V5.5l6.2-.9V2.1h-23.7v2.5l1.4.1c4.9.5 5.7.4 5.7 4.2v22.9c0 10.7 3.8 17.6 19 17.6 16.1 0 16.1-11.5 16.1-17.6V5.5l7-.9V2.1zm-.1 32.5c0-.1 0-.1 0 0zm24-13.3c-8.7-3.4-16.4-4.4-16.4-9.4 0-4.8 5.1-5.6 9.5-5.6 6.8 0 10.4 2 10.3 10.8h1.9s1.2-14.2 1.2-13.9c-3.5-.9-8.2-2.1-12.9-2.1-8 0-18.7 2.5-18.7 14 0 6.6 2.3 10.9 8.1 13.2 3.6 1.4 6.7 2.6 8.2 3.1 5.3 1.7 7.9 3.7 7.9 7.1 0 3-1.8 6.4-8.4 6.4-4.5 0-7.5-1.4-8.8-1.9-3.6-1.5-4-5.8-4-8.1l-1.9-.2c-.1.8-1 11.2-1 11.5 2.6 1.8 8.7 3.7 15.4 3.7 6.5 0 17.5-3.5 17.5-15.2 0-7-3.2-11.6-7.9-13.4zm9.7-19.2L268 17h1.9c.9-3.5.9-9.7 7.5-9.7h4.9v38.1l-7 .9v2.3h25.5v-2.3l-1.9-.1c-4.9-.8-5.1-.4-5.1-4.2V7.4h4.7c6.6 0 6.7 6.2 7.6 9.7h1.8l-1.3-14.9h-37.3zm161.3 41.6c-7.7 0-7.7-.5-7.7-6V5.5l7-.9V2.1h-23.7v2.5l.9.1c4.9.5 5.2.4 5.2 4.2v36.6l-5.3.9v2.3h34.5l1.4-15.8h-1.8c-1.5 7-3.7 10.8-10.5 10.8zm-78.4-.1c-2.6-13.2-6.3-15.7-12.9-16.9 4.9-.6 11.5-1.7 11.5-12.2 0-9.3-6.7-12.4-18.7-12.4h-23.5v2.5l.9.1c4.9.5 5.2.4 5.2 4.2v36.6l-6.2.9v2.3h23.7v-2.3l-.9-.1c-4.9-.5-5.2-.4-5.2-4.2V29.4h3c4.3 0 6.8.2 8.1 2.5 1.5 2.8 2.4 5.9 3.2 10 .4 1.7 1.1 5.1 1.4 6.8h14.1v-2.3c-2.4-.5-3.1-.1-3.7-2.8zm-19.5-19.5h-6.4V6.5h6.4c2.9 0 8.2 1.1 8.2 8.5 0 5.8-2.8 9.1-8.2 9.1zm67.4 18.8L386.3 2.1h-9.8l-15.3 43.4-4.2.9v2.3h13.2v-2.3c-2.6 0-5.1-.4-4.1-3.4.2-.6 1.5-4 2.9-7.5h16.9l3.4 10.1-5.9.8v2.3h22.9v-2.3l-1.7-.1c-1.3-.3-3.6-.4-4.5-3.4zm-29.3-12.7c3.4-8.8 7.2-19.9 7.2-19.9l6.3 19.9h-13.5zm72.3-25.6.9.1c4.9.5 5.2.4 5.2 4.2v36.6l-6.2.9v2.3h23.7v-2.3l-.9-.1c-4.9-.5-5.2-.4-5.2-4.2V5.5l6.2-.9V2.1h-23.7v2.5zm69.3 38.3L498.7 2.1h-9.8l-15.1 43.4-6 .9v2.3h17.6v-2.3c-5.3-.5-6.3-1-5.3-4.4.2-.6.9-3.9 2.1-6.5H498l3.3 10.1-7.2.8v2.3h24.6v-2.3l-2.1-.2c-1.8-.3-3.2-.3-4.2-3.3zm-28.5-12.7c3-8.8 6.5-18.8 6.5-18.8l6.2 18.8h-12.7zm66.5-28.1v2.5l1.4.1c4.9.5 5.7.4 5.7 4.2v24L536.8 2.1h-18v2.5l2 .1c4.9.8 4.9.4 4.9 4.2v36.6l-5.1.9v2.3h16.7v-2.3l-.9-.1c-4.9-.5-5.2-.4-5.2-4.2V12.9l23.5 35.8h7.6V5.5l5.8-.9V2.1h-17.7z" clip-rule="evenodd"/></svg>
