<svg xmlns="http://www.w3.org/2000/svg" fill="none" viewBox="0 0 225 26"><g fill="#fff" clip-path="url(#a)"><path d="M211.4 4.385a.487.487 0 1 0 0-.974.487.487 0 0 0 0 .974ZM215.917 4.385a.488.488 0 1 0 0-.976.488.488 0 0 0 0 .976ZM220.431 4.385a.487.487 0 1 0 0-.974.487.487 0 0 0 0 .974ZM177.175 22.485a.488.488 0 1 0 0-.977.488.488 0 0 0 0 .977ZM180.931 22.485a.487.487 0 1 0 0-.975.487.487 0 0 0 0 .974ZM184.685 22.485a.487.487 0 1 0 0-.975.487.487 0 0 0 0 .974ZM177.175 13.338a.488.488 0 1 0 0-.977.488.488 0 0 0 0 .976ZM180.931 13.338a.487.487 0 1 0 0-.975.487.487 0 0 0 0 .975ZM184.685 13.338a.487.487 0 1 0 0-.975.487.487 0 0 0 0 .975ZM180.931 4.43a.487.487 0 1 0 0-.975.487.487 0 0 0 0 .974ZM184.685 4.43a.487.487 0 1 0 0-.975.487.487 0 0 0 0 .974ZM191.386 4.385a.487.487 0 1 0 0-.974.487.487 0 0 0 0 .974ZM191.386 8.494a.487.487 0 1 0 0-.974.487.487 0 0 0 0 .974ZM191.386 13.01a.487.487 0 1 0 0-.974.487.487 0 0 0 0 .974ZM191.386 17.527a.487.487 0 1 0 0-.975.487.487 0 0 0 0 .975ZM191.386 22.042a.487.487 0 1 0 0-.974.487.487 0 0 0 0 .974ZM205.573 4.385a.487.487 0 1 0 .001-.974.487.487 0 0 0-.001.974ZM205.573 8.494a.487.487 0 1 0 .001-.975.487.487 0 0 0-.001.975ZM205.573 13.01a.487.487 0 1 0 .001-.975.487.487 0 0 0-.001.975ZM205.573 17.527a.487.487 0 1 0 .001-.975.487.487 0 0 0-.001.975ZM205.573 22.042a.487.487 0 1 0 .001-.975.487.487 0 0 0-.001.975ZM177.085 4.385a.488.488 0 1 0 0-.976.488.488 0 0 0 0 .976ZM177.085 8.494a.488.488 0 1 0 0-.976.488.488 0 0 0 0 .976ZM177.085 17.527a.488.488 0 1 0 0-.976.488.488 0 0 0 0 .976ZM150.011 4.386a.487.487 0 1 0 0-.975.487.487 0 0 0 0 .975ZM153.573 4.386a.487.487 0 1 0 .001-.975.487.487 0 0 0-.001.975ZM150.011 8.494a.487.487 0 1 0 0-.974.487.487 0 0 0 0 .974ZM150.011 13.01a.487.487 0 1 0 0-.974.487.487 0 0 0 0 .975ZM150.011 17.527a.487.487 0 1 0 0-.975.487.487 0 0 0 0 .975ZM150.011 22.042a.487.487 0 1 0 0-.975.487.487 0 0 0 0 .975ZM215.917 8.494a.488.488 0 1 0 0-.976.488.488 0 0 0 0 .976ZM215.917 13.01a.488.488 0 1 0 0-.976.488.488 0 0 0 0 .976ZM215.917 17.527a.488.488 0 1 0 0-.976.488.488 0 0 0 0 .976ZM215.917 22.042a.488.488 0 1 0 0-.976.488.488 0 0 0 0 .976ZM142.863 4.385a.487.487 0 1 0 0-.974.487.487 0 0 0 0 .974ZM142.863 8.494a.487.487 0 1 0 0-.974.487.487 0 0 0 0 .974ZM142.863 13.01a.487.487 0 1 0 0-.974.487.487 0 0 0 0 .974ZM142.863 17.527a.487.487 0 1 0 0-.975.487.487 0 0 0 0 .975ZM142.863 22.042a.487.487 0 1 0 0-.974.487.487 0 0 0 0 .974ZM128.562 4.385a.487.487 0 1 0 0-.974.487.487 0 0 0 0 .974ZM128.562 8.494a.487.487 0 1 0 0-.974.487.487 0 0 0 0 .974ZM128.562 13.01a.487.487 0 1 0 0-.974.487.487 0 0 0 0 .974ZM128.562 17.527a.487.487 0 1 0 0-.975.487.487 0 0 0 0 .975ZM128.562 22.042a.487.487 0 1 0 0-.974.487.487 0 0 0 0 .974ZM120.804 4.385a.487.487 0 1 0 0-.974.487.487 0 0 0 0 .974ZM120.804 8.494a.487.487 0 1 0 0-.975.487.487 0 0 0 0 .975ZM120.804 13.01a.487.487 0 1 0 0-.974.487.487 0 0 0 0 .974ZM120.804 17.527a.487.487 0 1 0 0-.975.487.487 0 0 0 0 .975ZM120.804 22.042a.487.487 0 1 0 0-.975.487.487 0 0 0 0 .975ZM132.214 8.494a.488.488 0 1 0 0-.976.488.488 0 0 0 0 .976ZM135.298 13.01a.488.488 0 1 0 0-.976.488.488 0 0 0 0 .976ZM138.247 17.527a.487.487 0 1 0 .001-.975.487.487 0 0 0-.001.975ZM155.185 8.494a.487.487 0 1 0 0-.974.487.487 0 0 0 0 .974ZM164.613 8.494a.487.487 0 1 0 0-.974.487.487 0 0 0 0 .974ZM156.554 13.01a.487.487 0 1 0 0-.974.487.487 0 0 0 0 .975ZM163.243 13.01a.487.487 0 1 0 .001-.975.487.487 0 0 0-.001.975ZM157.921 17.527a.488.488 0 1 0 0-.976.488.488 0 0 0 0 .976ZM161.833 17.527a.488.488 0 1 0 0-.976.488.488 0 0 0 0 .976ZM195.189 8.494a.487.487 0 1 0 0-.974.487.487 0 0 0 0 .974ZM197.974 13.01a.487.487 0 1 0 0-.974.487.487 0 0 0 0 .974ZM200.968 17.527a.487.487 0 1 0 0-.975.487.487 0 0 0 0 .975ZM86.702 4.385a.487.487 0 1 0 0-.975.487.487 0 0 0 0 .975ZM95.734 4.385a.488.488 0 1 0 0-.975.488.488 0 0 0 0 .975ZM91.195 4.385a.487.487 0 1 0 0-.975.487.487 0 0 0 0 .975ZM91.195 8.494a.487.487 0 1 0 0-.975.487.487 0 0 0 0 .975ZM91.195 13.01a.487.487 0 1 0 0-.975.487.487 0 0 0 0 .975ZM91.195 17.49c.269 0 .487-.202.487-.45 0-.25-.218-.45-.487-.45-.27 0-.488.2-.488.45 0 .248.218.45.488.45ZM91.195 22.042a.487.487 0 1 0 0-.975.487.487 0 0 0 0 .975ZM169.482 4.385a.487.487 0 1 0 0-.974.487.487 0 0 0 0 .974ZM166.185 4.385a.487.487 0 1 0 0-.974.487.487 0 0 0 0 .974ZM169.482 8.494a.487.487 0 1 0 0-.974.487.487 0 0 0 0 .974ZM169.482 13.01a.487.487 0 1 0 0-.974.487.487 0 0 0 0 .974ZM169.482 17.527a.487.487 0 1 0 0-.975.487.487 0 0 0 0 .975ZM169.482 22.042a.487.487 0 1 0 0-.974.487.487 0 0 0 0 .974ZM159.796 22.042a.488.488 0 1 0 0-.976.488.488 0 0 0 0 .976ZM66.653 22.386 58.215 1.152 58.083.82h-5.406l-8.884 22.137V7.1h4.567V.82H19.245v7.146C18.923 5.791 17.867 3.85 16.28 2.6 14.75 1.42 13.169.82 8.777.82H.88v24.36h6.751v-6.505l4.655 6.505h20.955v-6.279h-7.245v-2.95h7.024V9.67h-7.024V7.1H36.79V25.18h13.65l1.228-3.37h7.352l1.134 3.37h13.501V.82h-7.003v21.566Zm-9.536-6.351h-3.47l1.735-5.777 1.735 5.777ZM12.6 9.725c0 1.867-1.137 2.813-3.381 2.813H7.632V7.1h1.649c2.139 0 3.318.933 3.318 2.625Zm6.646 13.943-5.278-6.618c3.53-.972 4.915-4.021 5.278-6.369v12.987ZM106.49 8.065h-.875l-2.709 9.02h6.294l-2.709-9.02h-.001Zm-2.174 7.97 1.736-5.777 1.735 5.776h-3.471Z"/><path d="m117.325 22.386-8.437-21.234-.132-.332h-5.406l-8.664 21.588V7.1h4.567V.82h-16.17V7.1h4.6V18.9h-5.9V.821h-7.004v24.36h26.333l1.228-3.371h7.352l1.134 3.37h13.501V.82h-7.003v21.566h.001Zm1.05-20.516h4.904v22.26h-4.904V1.87Zm-34.24 4.18V1.87h14.07v4.18h-4.568v18.08h-4.903V6.05h-4.6Zm23.908-4.18 8.844 22.26h-5.307l-1.134-3.37h-8.841l-1.228 3.37h-5.25l8.935-22.26h3.983-.002ZM139.469 14.191l-8.07-13.12-.153-.25h-5.953v24.36h6.757l-.144-12.944 7.958 12.697.154.246H146V.82h-6.76l.231 13.371h-.002Zm-8.637-4.002.156 13.941h-4.645V1.87h4.315l8.781 14.276h1.115l-.246-14.276h4.642v22.26h-4.35l-8.739-13.944-1.027.003h-.002ZM159.837 14.964 155.568.82h-8.57v24.36h6.537l-.156-14.355L157.35 24.8l.108.381h4.731l4.08-14.355-.156 14.355h6.537V.82h-8.603l-4.21 14.144ZM171.6 1.87v22.26h-4.425l.186-17.142h-1.094l-4.87 17.142h-3.144l-4.88-17.17-1.084.028.186 17.142h-4.425V1.87h6.739l4.518 14.967.113.374h.844l4.568-15.34h6.769-.001ZM173.613 25.18h13.997v-6.279h-7.245v-2.95h7.024V9.67h-7.024V7.1h7.245V.82h-13.997v24.36Zm12.726-14.458V14.9h-7.024v5.05h7.245v4.18h-11.897V1.87h11.897v4.178h-7.245v4.673h7.024ZM208.747.82h-6.76l.231 13.371-8.07-13.12-.153-.25h-5.954v24.36h6.758l-.144-12.944 7.957 12.697.155.246h5.982V7.1h3.799v18.08h7.004V7.1h4.567V.82h-15.372Zm-15.01 23.31h-4.646V1.87h4.316l8.784 14.283 1.11-.009-.246-14.274h4.642v22.26h-4.35l-8.743-13.953-1.022.012.156 13.941h-.001Zm24.765-18.08v18.08h-4.904V6.05h-4.599V1.87h14.07v4.18h-4.567Z"/><path d="M108.323 8.494a.487.487 0 1 0 .001-.975.487.487 0 0 0-.001.975ZM109.948 13.01a.487.487 0 1 0 .001-.975.487.487 0 0 0-.001.975ZM105.841 4.385a.488.488 0 1 0 0-.976.488.488 0 0 0 0 .976ZM103.568 8.494a.487.487 0 1 0 0-.975.487.487 0 0 0 0 .975ZM101.943 13.01a.487.487 0 1 0 0-.974.487.487 0 0 0 0 .974ZM111.575 17.527a.487.487 0 1 0 .001-.975.487.487 0 0 0-.001.975ZM113.198 22.042a.489.489 0 0 0 0-.975.488.488 0 0 0 0 .975ZM100.318 17.527a.488.488 0 1 0-.003-.977.488.488 0 0 0 .003.977ZM98.693 22.042a.488.488 0 1 0 0-.975.488.488 0 0 0 0 .975ZM106.062 19.418a.487.487 0 1 0 0-.974.487.487 0 0 0 0 .974Z"/></g><defs><clipPath id="a"><path fill="#fff" d="M.88.82H224.12v24.36H.88z"/></clipPath></defs></svg>
